<?xml version="1.0" standalone="no"?>
<!DOCTYPE svg PUBLIC "-//W3C//DTD SVG 20010904//EN"
 "http://www.w3.org/TR/2001/REC-SVG-20010904/DTD/svg10.dtd">
<svg version="1.0" xmlns="http://www.w3.org/2000/svg"
 width="820.000000pt" height="512.000000pt" viewBox="0 0 820.000000 512.000000"
 preserveAspectRatio="xMidYMid meet">

<g transform="translate(0.000000,512.000000) scale(0.100000,-0.100000)"
fill="#000000" stroke="none">
<path d="M4085 5004 c-374 -27 -649 -100 -962 -255 -143 -71 -331 -188 -368
-229 -14 -15 -20 -36 -20 -69 1 -42 16 -72 203 -373 112 -180 217 -339 233
-353 43 -35 83 -32 155 11 144 88 184 110 270 145 195 80 327 104 554 103 140
0 195 -5 277 -22 490 -105 883 -442 1058 -908 97 -258 113 -584 41 -860 -68
-262 -238 -534 -444 -710 -195 -167 -408 -273 -654 -326 -138 -29 -417 -31
-553 -4 -184 37 -359 108 -510 207 -106 69 -148 75 -199 28 -19 -19 -124 -178
-233 -354 -257 -416 -254 -395 -53 -527 306 -200 665 -330 1050 -379 161 -21
483 -16 639 9 540 87 1003 322 1376 697 627 630 864 1547 620 2395 -295 1026
-1218 1746 -2275 1774 -85 2 -177 2 -205 0z"/>
<path d="M2183 3525 c-26 -11 -87 -96 -332 -464 -166 -248 -303 -462 -307
-476 -3 -14 -3 -36 0 -50 4 -14 142 -228 307 -476 256 -385 305 -452 334 -465
50 -21 809 -21 860 0 57 24 81 96 51 154 -8 15 -71 113 -140 217 l-127 190
854 5 853 5 76 37 c91 45 147 103 191 196 29 61 32 76 32 162 0 86 -3 101 -32
162 -44 93 -100 151 -191 196 l-76 37 -853 5 -853 5 87 130 c205 309 211 321
177 386 -29 57 -44 59 -481 59 -318 -1 -404 -4 -430 -15z"/>
</g>
</svg>
