<?xml version="1.0" standalone="no"?>
<!DOCTYPE svg PUBLIC "-//W3C//DTD SVG 20010904//EN"
 "http://www.w3.org/TR/2001/REC-SVG-20010904/DTD/svg10.dtd">
<svg version="1.0" xmlns="http://www.w3.org/2000/svg"
 width="820.000000pt" height="768.000000pt" viewBox="0 0 820.000000 768.000000"
 preserveAspectRatio="xMidYMid meet">

<g transform="translate(0.000000,768.000000) scale(0.100000,-0.100000)"
fill="#000000" stroke="none">
<path d="M5220 6770 l0 -270 387 0 388 0 -1095 -1095 c-602 -602 -1099 -1095
-1105 -1095 -6 0 -264 254 -575 565 l-565 565 -447 -447 -448 -448 -122 122
-121 121 33 84 c225 569 706 999 1285 1148 152 40 217 50 370 60 505 31 997
-138 1379 -475 l98 -87 182 181 181 181 -55 55 c-134 137 -378 310 -575 408
-356 179 -687 257 -1087 257 -300 0 -502 -32 -768 -120 -621 -206 -1119 -642
-1410 -1235 -181 -367 -261 -738 -247 -1135 23 -616 255 -1167 676 -1603 289
-299 628 -510 1026 -637 228 -72 445 -104 715 -105 406 0 750 82 1101 262 52
26 97 48 101 48 4 0 290 -282 635 -626 345 -344 660 -654 698 -689 181 -163
424 -195 635 -84 77 40 225 182 271 260 95 162 102 362 17 534 -28 58 -100
134 -715 751 l-684 685 36 60 c89 147 189 381 238 559 106 378 117 808 31
1192 -24 108 -76 278 -89 291 -3 3 -98 -86 -211 -199 l-205 -205 18 -90 c15
-72 18 -136 18 -334 -1 -227 -3 -254 -27 -371 -79 -368 -238 -671 -488 -932
-172 -180 -331 -297 -545 -402 -169 -83 -309 -129 -510 -167 -170 -32 -477
-32 -645 0 -282 53 -497 140 -735 297 -413 274 -706 708 -805 1193 -23 116
-45 301 -36 310 4 3 81 -68 171 -158 l165 -165 448 448 447 447 565 -565 c311
-311 569 -565 575 -565 6 0 586 576 1290 1280 704 704 1283 1280 1287 1280 5
0 8 -180 8 -400 l0 -400 265 0 265 0 0 865 0 865 -845 0 -845 0 0 -270z"/>
</g>
</svg>
