<svg xmlns="http://www.w3.org/2000/svg" width="600" height="600" viewBox="0 0 600 600" version="1.1"><path d="M 280 137.148 C 254.232 139.823, 230.872 149.298, 215.297 163.393 C 202.286 175.166, 191.951 194.418, 190.373 209.819 C 189.348 219.821, 189.079 219.727, 232 224.375 C 248.571 226.169, 249.971 225.487, 253.317 214 C 258.102 197.576, 271.954 188, 290.927 188 C 306.351 188, 315.684 193.449, 321.249 205.703 C 323.116 209.813, 323.483 212.733, 323.815 226.097 L 324.203 241.694 317.351 242.356 C 279.705 245.995, 257.933 249.588, 243 254.624 C 216.509 263.559, 197.457 280.596, 188.018 303.791 C 183.497 314.900, 182.526 321.061, 182.549 338.500 C 182.567 351.990, 182.919 355.722, 184.793 362.291 C 191.338 385.227, 205.639 400.986, 226.382 408.122 C 238.135 412.165, 247.461 413.355, 262 412.667 C 289.005 411.390, 305.739 404.121, 326.788 384.527 C 330.796 380.795, 334.211 377.913, 334.376 378.121 C 334.541 378.330, 336.175 380.750, 338.007 383.500 C 348.245 398.866, 360.664 411, 366.153 411 C 370.519 411, 371.996 409.979, 389 395.212 C 415.991 371.773, 413.341 374.579, 412.737 370.077 C 412.374 367.371, 410.314 363.496, 406.214 357.811 C 399.193 348.075, 396.611 343.190, 394.305 335.280 C 392.833 330.232, 392.540 321.272, 391.994 264.500 C 391.394 202.040, 391.285 199.195, 389.213 191.700 C 383.337 170.447, 368.371 153.976, 347.145 145.403 C 327.844 137.606, 303.918 134.665, 280 137.148 M 307.500 281.072 C 297.016 281.988, 284.986 284.944, 277.160 288.527 C 261.073 295.892, 252.951 309.383, 252.858 328.890 C 252.747 352.351, 265.258 365.715, 285.374 363.621 C 298.105 362.296, 309.747 353.364, 316.461 339.773 C 322.423 327.702, 323.169 323.690, 323.725 300.750 L 324.227 280 320.363 280.143 C 318.239 280.221, 312.450 280.639, 307.500 281.072 M 449 369.427 C 434.130 372.732, 418 381.158, 418 385.620 C 418 388.074, 420.239 388.136, 431.053 385.981 C 436.799 384.835, 446.675 383.643, 453 383.331 C 463.785 382.798, 464.671 382.899, 467.250 384.954 C 469.804 386.989, 470 387.672, 470 394.530 C 470 399.825, 468.972 405.816, 466.365 415.707 C 461.462 434.311, 461.248 436, 463.787 436 C 466.002 436, 470.780 430.993, 475.166 424.077 C 483.329 411.206, 489.083 384.903, 486.122 374 C 484.888 369.460, 479.997 367.991, 466.500 368.104 C 459.900 368.160, 452.025 368.755, 449 369.427 M 437 401.850 C 394.288 423.104, 347.914 435.268, 299 438.047 C 242.360 441.265, 185.385 431.301, 133.214 409.053 C 126.457 406.171, 120.270 404.066, 119.464 404.375 C 116.752 405.416, 117.947 408.823, 122.250 412.317 C 127.913 416.916, 140.311 424.925, 152.130 431.620 C 177.914 446.226, 210.230 457.210, 243.500 462.675 C 257.912 465.043, 298.549 465.568, 315.501 463.605 C 363.242 458.078, 413.471 438.084, 447.230 411.170 C 456.049 404.140, 457.740 400.827, 454.040 397.831 C 452.796 396.824, 451.041 396.029, 450.139 396.064 C 449.238 396.099, 443.325 398.702, 437 401.850" stroke="none" fill="#fbfbfa" fill-rule="evenodd"/><path d="M 273.500 1.125 C 216.878 6.504, 165.689 26.334, 119.164 60.912 C 103.761 72.360, 74.123 101.656, 62.634 116.790 C 45.070 139.927, 26.902 173.064, 18.110 198 C -10.276 278.507, -4.372 364.233, 34.707 438.995 C 48.748 465.858, 65.998 489.175, 88.411 511.589 C 141.308 564.485, 206.432 593.673, 283.738 599.133 C 400.691 607.393, 514.338 541.570, 568.459 434.227 C 587.087 397.280, 596.733 360.926, 600.151 314.794 C 602.871 278.079, 595.221 230.560, 580.463 192.500 C 564.473 151.261, 543.371 119.064, 511.616 87.453 C 490.988 66.919, 472.431 52.597, 448.474 38.721 C 415.719 19.750, 373.984 6.204, 334 1.568 C 319.452 -0.119, 288.948 -0.342, 273.500 1.125 M 280 137.148 C 254.232 139.823, 230.872 149.298, 215.297 163.393 C 202.286 175.166, 191.951 194.418, 190.373 209.819 C 189.348 219.821, 189.079 219.727, 232 224.375 C 248.571 226.169, 249.971 225.487, 253.317 214 C 258.102 197.576, 271.954 188, 290.927 188 C 306.351 188, 315.684 193.449, 321.249 205.703 C 323.116 209.813, 323.483 212.733, 323.815 226.097 L 324.203 241.694 317.351 242.356 C 279.705 245.995, 257.933 249.588, 243 254.624 C 216.509 263.559, 197.457 280.596, 188.018 303.791 C 183.497 314.900, 182.526 321.061, 182.549 338.500 C 182.567 351.990, 182.919 355.722, 184.793 362.291 C 191.338 385.227, 205.639 400.986, 226.382 408.122 C 238.135 412.165, 247.461 413.355, 262 412.667 C 289.005 411.390, 305.739 404.121, 326.788 384.527 C 330.796 380.795, 334.211 377.913, 334.376 378.121 C 334.541 378.330, 336.175 380.750, 338.007 383.500 C 348.245 398.866, 360.664 411, 366.153 411 C 370.519 411, 371.996 409.979, 389 395.212 C 415.991 371.773, 413.341 374.579, 412.737 370.077 C 412.374 367.371, 410.314 363.496, 406.214 357.811 C 399.193 348.075, 396.611 343.190, 394.305 335.280 C 392.833 330.232, 392.540 321.272, 391.994 264.500 C 391.394 202.040, 391.285 199.195, 389.213 191.700 C 383.337 170.447, 368.371 153.976, 347.145 145.403 C 327.844 137.606, 303.918 134.665, 280 137.148 M 307.500 281.072 C 297.016 281.988, 284.986 284.944, 277.160 288.527 C 261.073 295.892, 252.951 309.383, 252.858 328.890 C 252.747 352.351, 265.258 365.715, 285.374 363.621 C 298.105 362.296, 309.747 353.364, 316.461 339.773 C 322.423 327.702, 323.169 323.690, 323.725 300.750 L 324.227 280 320.363 280.143 C 318.239 280.221, 312.450 280.639, 307.500 281.072 M 0.385 300 C 0.385 306.875, 0.545 309.688, 0.740 306.250 C 0.936 302.813, 0.936 297.188, 0.740 293.750 C 0.545 290.313, 0.385 293.125, 0.385 300 M 37.272 319 C 37.272 321.475, 37.467 322.488, 37.706 321.250 C 37.944 320.012, 37.944 317.988, 37.706 316.750 C 37.467 315.512, 37.272 316.525, 37.272 319 M 449 369.427 C 434.130 372.732, 418 381.158, 418 385.620 C 418 388.074, 420.239 388.136, 431.053 385.981 C 436.799 384.835, 446.675 383.643, 453 383.331 C 463.785 382.798, 464.671 382.899, 467.250 384.954 C 469.804 386.989, 470 387.672, 470 394.530 C 470 399.825, 468.972 405.816, 466.365 415.707 C 461.462 434.311, 461.248 436, 463.787 436 C 466.002 436, 470.780 430.993, 475.166 424.077 C 483.329 411.206, 489.083 384.903, 486.122 374 C 484.888 369.460, 479.997 367.991, 466.500 368.104 C 459.900 368.160, 452.025 368.755, 449 369.427 M 437 401.850 C 394.288 423.104, 347.914 435.268, 299 438.047 C 242.360 441.265, 185.385 431.301, 133.214 409.053 C 126.457 406.171, 120.270 404.066, 119.464 404.375 C 116.752 405.416, 117.947 408.823, 122.250 412.317 C 127.913 416.916, 140.311 424.925, 152.130 431.620 C 177.914 446.226, 210.230 457.210, 243.500 462.675 C 257.912 465.043, 298.549 465.568, 315.501 463.605 C 363.242 458.078, 413.471 438.084, 447.230 411.170 C 456.049 404.140, 457.740 400.827, 454.040 397.831 C 452.796 396.824, 451.041 396.029, 450.139 396.064 C 449.238 396.099, 443.325 398.702, 437 401.850 M 279.264 562.718 C 280.784 562.947, 283.034 562.941, 284.264 562.704 C 285.494 562.467, 284.250 562.279, 281.500 562.286 C 278.750 562.294, 277.744 562.488, 279.264 562.718" stroke="none" fill="#f2971c" fill-rule="evenodd"/></svg>