<svg xmlns="http://www.w3.org/2000/svg" width="512" height="512" viewBox="0 0 512 512" version="1.1"><path d="M 312.500 96.482 C 281.195 103.385, 257.722 129.746, 255.345 160.668 C 254.580 170.623, 254.810 170.820, 265.213 169.102 C 294.488 164.267, 318.086 136.636, 319.745 105.250 C 320.051 99.470, 319.897 95.035, 319.394 95.079 C 318.902 95.123, 315.800 95.754, 312.500 96.482 M 297.500 175.387 C 292.550 176.723, 283.105 179.916, 276.510 182.483 C 260.323 188.785, 257.590 189.017, 246.445 185.040 C 219.497 175.422, 217.456 174.836, 208.965 174.285 C 176.415 172.174, 144.293 194.841, 132.107 228.518 C 118.614 265.808, 125.703 316.530, 150.834 362.500 C 161.233 381.521, 180.999 405.529, 191.025 411.315 C 203.072 418.267, 213.446 418.057, 232.625 410.472 C 247.077 404.756, 251.470 403.797, 263.109 403.821 C 273.215 403.841, 273.637 403.951, 298 412.864 C 312.047 418.002, 323.809 416.948, 335.500 409.501 C 350.234 400.116, 372.450 368.196, 383.111 341.092 L 386.831 331.633 379.499 327.341 C 364.352 318.474, 352.380 304.068, 347.400 288.715 C 343.865 277.816, 343.008 261.558, 345.400 250.804 C 349.148 233.959, 362.134 214.941, 375.132 207.263 C 376.709 206.331, 378 205.251, 378 204.862 C 378 203.154, 367.973 192.565, 362.539 188.534 C 349.409 178.794, 335.674 174.134, 318 173.422 C 308.033 173.021, 305.300 173.282, 297.500 175.387" stroke="none" fill="#fbfbfb" fill-rule="evenodd"/><path d="M 226.500 1.165 C 182.271 6.157, 137.688 24.111, 100.540 51.888 C 87.632 61.540, 61.540 87.632, 51.888 100.540 C 23.611 138.356, 6.012 182.557, 1.055 228.211 C -0.302 240.704, -0.302 271.296, 1.055 283.789 C 6.012 329.443, 23.611 373.644, 51.888 411.460 C 61.540 424.368, 87.632 450.460, 100.540 460.112 C 132.665 484.134, 167.249 499.638, 206 507.390 C 223.699 510.931, 235.293 512, 256 512 C 290.466 512, 318.045 506.915, 349.258 494.803 C 383.340 481.578, 410.183 463.921, 437.052 437.052 C 458.220 415.884, 471.466 397.831, 484.595 372.258 C 497.687 346.754, 508.531 310.682, 510.653 285.572 C 511.009 281.371, 511.682 277.697, 512.150 277.408 C 512.617 277.118, 513 266.982, 513 254.882 C 513 242.782, 512.615 233.120, 512.144 233.411 C 511.673 233.702, 511 230.531, 510.648 226.365 C 510.296 222.198, 508.856 213.099, 507.449 206.145 C 499.524 166.992, 484.144 132.679, 460.112 100.540 C 450.460 87.632, 424.368 61.540, 411.460 51.888 C 373.644 23.611, 329.443 6.012, 283.789 1.055 C 272.335 -0.189, 237.909 -0.123, 226.500 1.165 M 312.500 96.482 C 281.195 103.385, 257.722 129.746, 255.345 160.668 C 254.580 170.623, 254.810 170.820, 265.213 169.102 C 294.488 164.267, 318.086 136.636, 319.745 105.250 C 320.051 99.470, 319.897 95.035, 319.394 95.079 C 318.902 95.123, 315.800 95.754, 312.500 96.482 M 297.500 175.387 C 292.550 176.723, 283.105 179.916, 276.510 182.483 C 260.323 188.785, 257.590 189.017, 246.445 185.040 C 219.497 175.422, 217.456 174.836, 208.965 174.285 C 176.415 172.174, 144.293 194.841, 132.107 228.518 C 118.614 265.808, 125.703 316.530, 150.834 362.500 C 161.233 381.521, 180.999 405.529, 191.025 411.315 C 203.072 418.267, 213.446 418.057, 232.625 410.472 C 247.077 404.756, 251.470 403.797, 263.109 403.821 C 273.215 403.841, 273.637 403.951, 298 412.864 C 312.047 418.002, 323.809 416.948, 335.500 409.501 C 350.234 400.116, 372.450 368.196, 383.111 341.092 L 386.831 331.633 379.499 327.341 C 364.352 318.474, 352.380 304.068, 347.400 288.715 C 343.865 277.816, 343.008 261.558, 345.400 250.804 C 349.148 233.959, 362.134 214.941, 375.132 207.263 C 376.709 206.331, 378 205.251, 378 204.862 C 378 203.154, 367.973 192.565, 362.539 188.534 C 349.409 178.794, 335.674 174.134, 318 173.422 C 308.033 173.021, 305.300 173.282, 297.500 175.387 M 0.428 256 C 0.428 268.375, 0.571 273.438, 0.747 267.250 C 0.922 261.063, 0.922 250.938, 0.747 244.750 C 0.571 238.563, 0.428 243.625, 0.428 256" stroke="none" fill="#3a3a3a" fill-rule="evenodd"/></svg>