<?xml version="1.0" encoding="UTF-8"?>
<!DOCTYPE svg PUBLIC "-//W3C//DTD SVG 1.1//EN" "http://www.w3.org/Graphics/SVG/1.1/DTD/svg11.dtd">
<svg xmlns="http://www.w3.org/2000/svg" version="1.1" width="980px" height="980px" style="shape-rendering:geometricPrecision; text-rendering:geometricPrecision; image-rendering:optimizeQuality; fill-rule:evenodd; clip-rule:evenodd" xmlns:xlink="http://www.w3.org/1999/xlink">
<g><path style="opacity:1" fill="#fdfdfd" d="M -0.5,-0.5 C 326.167,-0.5 652.833,-0.5 979.5,-0.5C 979.5,326.167 979.5,652.833 979.5,979.5C 652.833,979.5 326.167,979.5 -0.5,979.5C -0.5,652.833 -0.5,326.167 -0.5,-0.5 Z"/></g>
<g><path style="opacity:1" fill="#020202" d="M 585.5,41.5 C 589.954,43.1994 594.62,44.5327 599.5,45.5C 631.012,54.7549 661.012,67.5882 689.5,84C 690.451,84.7175 690.617,85.5509 690,86.5C 682.567,92.5956 677.567,100.262 675,109.5C 674.439,110.022 673.772,110.355 673,110.5C 567.939,52.6331 459.439,45.4664 347.5,89C 244.954,134.546 175.454,210.379 139,316.5C 103.95,439.541 124.283,552.208 200,654.5C 289.509,761.747 404.009,807.413 543.5,791.5C 547.791,791.213 551.958,791.213 556,791.5C 556.985,790.186 558.152,789.186 559.5,788.5C 565.756,786.876 572.09,785.543 578.5,784.5C 581.152,784.59 583.485,783.924 585.5,782.5C 641.614,766.942 691.281,739.608 734.5,700.5C 740.129,696.539 745.129,691.873 749.5,686.5C 814.018,620.239 849.518,540.572 856,447.5C 857.666,413.64 854.832,380.307 847.5,347.5C 847.59,344.848 846.924,342.515 845.5,340.5C 844.808,336.11 843.808,331.776 842.5,327.5C 841.253,320.821 839.253,314.487 836.5,308.5C 828.41,285.872 818.41,264.206 806.5,243.5C 816.162,240.003 824.495,234.503 831.5,227C 832.332,226.312 832.998,226.479 833.5,227.5C 858.743,270.557 875.077,316.89 882.5,366.5C 882.726,369.249 882.393,371.916 881.5,374.5C 882.793,376.103 883.793,377.769 884.5,379.5C 888.913,417.582 888.246,455.582 882.5,493.5C 880.762,502.758 878.762,512.092 876.5,521.5C 874.96,526.785 873.627,532.118 872.5,537.5C 870.723,540.505 869.723,543.838 869.5,547.5C 839.856,636.659 786.19,707.492 708.5,760C 706.876,761.117 705.876,762.617 705.5,764.5C 730.04,819.25 754.873,873.917 780,928.5C 781.358,936.234 778.858,942.401 772.5,947C 727.226,948.651 681.892,948.985 636.5,948C 632.31,945.474 629.143,941.974 627,937.5C 609.674,898.533 592.174,859.866 574.5,821.5C 574.494,819.156 573.327,817.822 571,817.5C 568.292,817.867 565.792,818.534 563.5,819.5C 510.67,829.156 458.003,828.656 405.5,818C 386.976,860.208 367.81,902.042 348,943.5C 346.59,944.787 345.09,945.954 343.5,947C 320.394,948.152 297.228,948.652 274,948.5C 251.081,948.657 228.247,948.157 205.5,947C 198.973,942.036 196.807,935.536 199,927.5C 223.923,873.145 248.757,818.645 273.5,764C 273.241,762.739 272.574,761.739 271.5,761C 188.111,705.48 132.611,629.313 105,532.5C 73.2542,403.217 97.2542,285.884 177,180.5C 273.279,66.1496 396.112,17.3163 545.5,34C 559.042,35.6173 572.375,38.1173 585.5,41.5 Z"/></g>
<g><path style="opacity:1" fill="#020202" d="M 810.5,41.5 C 810.5,63.5 810.5,85.5 810.5,107.5C 832.833,107.5 855.167,107.5 877.5,107.5C 888.266,113.37 890.433,121.704 884,132.5C 880.275,135.728 876.775,139.061 873.5,142.5C 871.5,143.833 869.833,145.5 868.5,147.5C 846.594,168.907 824.927,190.407 803.5,212C 801.212,212.822 798.878,213.489 796.5,214C 772.5,214.333 748.5,214.667 724.5,215C 680.167,259.333 635.833,303.667 591.5,348C 577.271,355.385 568.604,351.219 565.5,335.5C 565.466,332.567 566.299,329.9 568,327.5C 613.068,282.599 657.901,237.599 702.5,192.5C 703.333,167.173 703.833,141.84 704,116.5C 704.667,115.167 705.333,113.833 706,112.5C 732.887,86.2792 759.387,59.7792 785.5,33C 796.945,27.3364 805.278,30.1697 810.5,41.5 Z"/></g>
<g><path style="opacity:1" fill="#b7b7b7" d="M 585.5,41.5 C 590.654,41.5677 595.32,42.901 599.5,45.5C 594.62,44.5327 589.954,43.1994 585.5,41.5 Z"/></g>
<g><path style="opacity:1" fill="#4f4f4f" d="M 810.5,41.5 C 811.497,62.9936 811.831,84.6602 811.5,106.5C 833.673,106.169 855.673,106.503 877.5,107.5C 855.167,107.5 832.833,107.5 810.5,107.5C 810.5,85.5 810.5,63.5 810.5,41.5 Z"/></g>
<g><path style="opacity:1" fill="#010101" d="M 528.5,139.5 C 533.959,140.951 539.626,141.951 545.5,142.5C 557.492,145.165 569.492,148.165 581.5,151.5C 607.632,161.066 632.298,173.566 655.5,189C 656.868,190.34 658.201,191.674 659.5,193C 634.906,218.638 609.572,243.972 583.5,269C 569.831,262.843 555.831,257.176 541.5,252C 513.162,243.894 484.496,242.394 455.5,247.5C 452.848,247.41 450.515,248.076 448.5,249.5C 400.27,260.867 362.437,287.201 335,328.5C 325.058,343.707 317.892,360.041 313.5,377.5C 311.254,381.805 309.92,386.471 309.5,391.5C 298.489,458.962 317.156,516.462 365.5,564C 418.264,609.184 478.264,622.184 545.5,603C 599.454,584.048 637.621,548.214 660,495.5C 669.137,471.317 673.304,446.317 672.5,420.5C 672.714,411.883 671.714,403.55 669.5,395.5C 666.229,373.852 658.895,353.685 647.5,335C 652.315,330.351 656.982,325.518 661.5,320.5C 666.791,315.175 672.124,309.842 677.5,304.5C 682.5,300.167 687.167,295.5 691.5,290.5C 695.167,287.5 698.5,284.167 701.5,280.5C 708.329,274.504 714.662,268.004 720.5,261C 722.207,259.68 723.874,258.68 725.5,258C 773.821,327.343 790.154,403.843 774.5,487.5C 772.882,491.575 771.882,495.908 771.5,500.5C 750.564,575.704 707.231,634.37 641.5,676.5C 628.617,683.441 615.617,690.108 602.5,696.5C 592.425,700.189 582.425,703.856 572.5,707.5C 562.605,709.391 552.939,711.725 543.5,714.5C 520.323,717.936 496.99,719.269 473.5,718.5C 471.167,718.5 468.833,718.5 466.5,718.5C 462.119,716.789 457.453,716.123 452.5,716.5C 426.302,713.226 400.969,706.726 376.5,697C 294.566,660.216 239.4,599.05 211,513.5C 209.294,506.335 207.46,499.335 205.5,492.5C 205.59,489.848 204.924,487.515 203.5,485.5C 186.573,386.489 211.74,300.155 279,226.5C 347.95,157.821 431.117,128.821 528.5,139.5 Z"/></g>
<g><path style="opacity:1" fill="#d0d0d0" d="M 545.5,142.5 C 539.626,141.951 533.959,140.951 528.5,139.5C 531.394,139.958 533.894,139.291 536,137.5C 538.52,138.207 541.02,139.04 543.5,140C 543.167,140.333 542.833,140.667 542.5,141C 543.737,141.232 544.737,141.732 545.5,142.5 Z"/></g>
<g><path style="opacity:1" fill="#dbdbdb" d="M 545.5,142.5 C 552.175,142.334 558.842,142.5 565.5,143C 566.551,144.385 567.884,145.385 569.5,146C 572.877,146.452 576.211,147.118 579.5,148C 578.5,148.333 577.5,148.667 576.5,149C 578.491,149.374 580.158,150.207 581.5,151.5C 569.492,148.165 557.492,145.165 545.5,142.5 Z"/></g>
<g><path style="opacity:1" fill="#a5a5a5" d="M 873.5,142.5 C 872.833,145.167 871.167,146.833 868.5,147.5C 869.833,145.5 871.5,143.833 873.5,142.5 Z"/></g>
<g><path style="opacity:1" fill="#969696" d="M 455.5,247.5 C 453.485,248.924 451.152,249.59 448.5,249.5C 450.515,248.076 452.848,247.41 455.5,247.5 Z"/></g>
<g><path style="opacity:1" fill="#d5d5d5" d="M 701.5,280.5 C 698.5,284.167 695.167,287.5 691.5,290.5C 691.586,289.504 691.252,288.671 690.5,288C 692.954,285.615 695.788,282.782 699,279.5C 699.671,280.252 700.504,280.586 701.5,280.5 Z"/></g>
<g><path style="opacity:1" fill="#e0e0e0" d="M 677.5,304.5 C 672.124,309.842 666.791,315.175 661.5,320.5C 661.67,319.178 661.337,318.011 660.5,317C 663.141,315.333 665.307,313.167 667,310.5C 669.391,311.602 669.891,310.936 668.5,308.5C 670.167,307.333 671.833,306.167 673.5,305C 672.346,304.086 672.513,303.253 674,302.5C 674.816,303.823 675.983,304.489 677.5,304.5 Z"/></g>
<g><path style="opacity:1" fill="#d1d1d1" d="M 836.5,308.5 C 839.253,314.487 841.253,320.821 842.5,327.5C 841.069,326.22 840.402,324.553 840.5,322.5C 838.876,322.64 837.71,321.973 837,320.5C 837.614,316.479 837.447,312.479 836.5,308.5 Z"/></g>
<g><path style="opacity:1" fill="#040404" d="M 504.5,331.5 C 504.5,338.167 504.5,344.833 504.5,351.5C 515.5,351.5 526.5,351.5 537.5,351.5C 548.971,354.773 552.804,362.106 549,373.5C 546.711,377.786 543.211,380.619 538.5,382C 515.5,382.333 492.5,382.667 469.5,383C 456.67,390.314 455.336,399.314 465.5,410C 466.833,410.667 468.167,411.333 469.5,412C 483.5,412.333 497.5,412.667 511.5,413C 535.753,418.08 548.753,432.914 550.5,457.5C 549.432,483.57 536.099,499.237 510.5,504.5C 508.5,504.5 506.5,504.5 504.5,504.5C 504.5,510.833 504.5,517.167 504.5,523.5C 501.07,532.721 494.403,536.555 484.5,535C 479.288,532.753 475.788,528.92 474,523.5C 473.5,517.175 473.334,510.842 473.5,504.5C 460.734,504.961 448.067,504.461 435.5,503C 429.374,497.957 427.208,491.457 429,483.5C 431.371,479.559 434.538,476.393 438.5,474C 462.167,473.667 485.833,473.333 509.5,473C 518.861,468.442 521.694,461.275 518,451.5C 516.403,448.781 514.237,446.614 511.5,445C 496.22,443.731 480.887,443.064 465.5,443C 441.45,436.787 429.116,421.287 428.5,396.5C 429.288,374.861 439.955,360.361 460.5,353C 464.751,351.805 469.085,351.305 473.5,351.5C 473.334,345.158 473.5,338.825 474,332.5C 477.799,322.547 484.966,319.047 495.5,322C 500.056,323.722 503.056,326.889 504.5,331.5 Z"/></g>
<g><path style="opacity:1" fill="#a9a9a9" d="M 845.5,340.5 C 846.924,342.515 847.59,344.848 847.5,347.5C 846.076,345.485 845.41,343.152 845.5,340.5 Z"/></g>
<g><path style="opacity:1" fill="#c4c4c4" d="M 504.5,331.5 C 505.49,337.645 505.823,343.978 505.5,350.5C 516.346,350.172 527.013,350.506 537.5,351.5C 526.5,351.5 515.5,351.5 504.5,351.5C 504.5,344.833 504.5,338.167 504.5,331.5 Z"/></g>
<g><path style="opacity:1" fill="#313131" d="M 882.5,366.5 C 883.895,370.591 884.562,374.924 884.5,379.5C 883.793,377.769 882.793,376.103 881.5,374.5C 882.393,371.916 882.726,369.249 882.5,366.5 Z"/></g>
<g><path style="opacity:1" fill="#d6d6d6" d="M 313.5,377.5 C 313.244,379.792 313.577,381.959 314.5,384C 313.745,386.175 312.912,388.341 312,390.5C 311.667,390.167 311.333,389.833 311,389.5C 310.722,390.416 310.222,391.082 309.5,391.5C 309.92,386.471 311.254,381.805 313.5,377.5 Z"/></g>
<g><path style="opacity:1" fill="#d6d6d6" d="M 669.5,395.5 C 671.714,403.55 672.714,411.883 672.5,420.5C 671.679,417.359 671.179,414.025 671,410.5C 669.492,408.983 668.658,407.149 668.5,405C 669.256,401.875 669.589,398.709 669.5,395.5 Z"/></g>
<g><path style="opacity:1" fill="#9e9e9e" d="M 203.5,485.5 C 204.924,487.515 205.59,489.848 205.5,492.5C 204.076,490.485 203.41,488.152 203.5,485.5 Z"/></g>
<g><path style="opacity:1" fill="#c4c4c4" d="M 774.5,487.5 C 774.318,489.591 774.652,491.591 775.5,493.5C 774.071,495.893 772.737,498.226 771.5,500.5C 771.882,495.908 772.882,491.575 774.5,487.5 Z"/></g>
<g><path style="opacity:1" fill="#d8d8d8" d="M 882.5,493.5 C 882.75,496.214 882.917,498.881 883,501.5C 882.667,500.833 882.333,500.167 882,499.5C 881.707,505.867 881.207,512.2 880.5,518.5C 879.5,518.5 878.5,518.5 877.5,518.5C 877.737,519.791 877.404,520.791 876.5,521.5C 878.762,512.092 880.762,502.758 882.5,493.5 Z"/></g>
<g><path style="opacity:1" fill="#aeaeae" d="M 510.5,504.5 C 509.081,505.451 507.415,505.784 505.5,505.5C 505.823,511.69 505.49,517.69 504.5,523.5C 504.5,517.167 504.5,510.833 504.5,504.5C 506.5,504.5 508.5,504.5 510.5,504.5 Z"/></g>
<g><path style="opacity:1" fill="#a7a7a7" d="M 872.5,537.5 C 872.277,541.162 871.277,544.495 869.5,547.5C 869.723,543.838 870.723,540.505 872.5,537.5 Z"/></g>
<g><path style="opacity:1" fill="#e6e6e6" d="M 641.5,676.5 C 639.232,680.93 635.732,684.264 631,686.5C 629.493,685.465 627.993,685.632 626.5,687C 627.833,687.667 627.833,688.333 626.5,689C 619.887,691.309 613.554,694.142 607.5,697.5C 605.793,697.272 604.126,696.938 602.5,696.5C 615.617,690.108 628.617,683.441 641.5,676.5 Z"/></g>
<g><path style="opacity:1" fill="#dfdfdf" d="M 749.5,686.5 C 745.129,691.873 740.129,696.539 734.5,700.5C 735.589,696.247 738.256,693.247 742.5,691.5C 742.023,690.522 741.357,689.689 740.5,689C 741.931,688.535 743.097,687.701 744,686.5C 745.566,687.061 746.899,686.394 748,684.5C 748.278,685.416 748.778,686.082 749.5,686.5 Z"/></g>
<g><path style="opacity:1" fill="#e0e0e0" d="M 572.5,707.5 C 572.414,708.496 572.748,709.329 573.5,710C 571.236,710.236 569.069,710.736 567,711.5C 566.275,710.941 565.442,710.608 564.5,710.5C 562.63,711.866 560.63,713.033 558.5,714C 553.599,713.894 548.599,714.061 543.5,714.5C 552.939,711.725 562.605,709.391 572.5,707.5 Z"/></g>
<g><path style="opacity:1" fill="#c5c5c5" d="M 543.5,714.5 C 543.918,715.222 544.584,715.722 545.5,716C 543.487,717.257 541.321,718.091 539,718.5C 517.238,719.377 495.404,719.377 473.5,718.5C 496.99,719.269 520.323,717.936 543.5,714.5 Z"/></g>
<g><path style="opacity:1" fill="#363636" d="M 452.5,716.5 C 457.453,716.123 462.119,716.789 466.5,718.5C 461.647,718.187 456.98,717.521 452.5,716.5 Z"/></g>
<g><path style="opacity:1" fill="#484848" d="M 585.5,782.5 C 583.485,783.924 581.152,784.59 578.5,784.5C 580.515,783.076 582.848,782.41 585.5,782.5 Z"/></g>
<g><path style="opacity:1" fill="#313131" d="M 559.5,788.5 C 558.152,789.186 556.985,790.186 556,791.5C 551.958,791.213 547.791,791.213 543.5,791.5C 548.63,790.087 553.963,789.087 559.5,788.5 Z"/></g>
<g><path style="opacity:1" fill="#c5c5c5" d="M 574.5,821.5 C 573.175,820.047 572.342,820.381 572,822.5C 569.646,820.363 566.812,819.363 563.5,819.5C 565.792,818.534 568.292,817.867 571,817.5C 573.327,817.822 574.494,819.156 574.5,821.5 Z"/></g>
</svg>
