<svg xmlns="http://www.w3.org/2000/svg" width="1024" height="905" viewBox="0 0 1024 905" version="1.1"><path d="M 381.441 140.555 C 379.600 142.030, 379.623 142.050, 381.896 140.942 C 383.224 140.294, 386.294 139.998, 388.781 140.279 C 391.553 140.591, 392.740 140.449, 391.885 139.908 C 389.650 138.492, 383.543 138.871, 381.441 140.555 M 563.395 378.500 C 563.396 386.200, 563.553 389.218, 563.743 385.206 C 563.934 381.195, 563.932 374.895, 563.741 371.206 C 563.549 367.518, 563.393 370.800, 563.395 378.500 M 202.310 386.500 C 202.315 389.800, 202.502 391.029, 202.725 389.232 C 202.947 387.435, 202.943 384.735, 202.715 383.232 C 202.486 381.729, 202.304 383.200, 202.310 386.500 M 697.729 409.703 C 698.955 409.940, 701.543 411.985, 703.479 414.247 C 705.416 416.509, 707 418.055, 707 417.683 C 707 415.805, 699.557 409.013, 697.634 409.136 C 695.560 409.269, 695.562 409.284, 697.729 409.703 M 695.469 432.250 L 689.500 438.500 695.750 432.531 C 699.188 429.249, 702 426.436, 702 426.281 C 702 425.542, 701.013 426.444, 695.469 432.250 M 202.328 435.500 C 202.333 439.350, 202.513 440.802, 202.730 438.728 C 202.946 436.653, 202.943 433.503, 202.722 431.728 C 202.501 429.952, 202.324 431.650, 202.328 435.500 M 577.382 457.500 C 577.384 464.100, 577.546 466.670, 577.741 463.211 C 577.937 459.752, 577.936 454.352, 577.738 451.211 C 577.540 448.070, 577.380 450.900, 577.382 457.500 M 312 535.700 C 311.725 566.611, 311.841 591.559, 312.259 591.142 C 312.676 590.724, 312.901 565.434, 312.758 534.941 L 312.499 479.500 312 535.700 M 324.241 536.250 L 324 592 338.250 591.781 L 352.500 591.561 338.758 591.252 L 325.017 590.944 324.750 535.722 L 324.483 480.500 324.241 536.250 M 566.750 484.748 C 575.138 484.915, 588.862 484.915, 597.250 484.748 C 605.638 484.581, 598.775 484.444, 582 484.444 C 565.225 484.444, 558.362 484.581, 566.750 484.748 M 697.365 536.500 C 697.368 542, 697.536 544.122, 697.738 541.216 C 697.941 538.311, 697.939 533.811, 697.734 531.216 C 697.528 528.622, 697.363 531, 697.365 536.500 M 371.206 591.741 C 374.895 591.932, 381.195 591.934, 385.206 591.743 C 389.218 591.553, 386.200 591.396, 378.500 591.395 C 370.800 591.393, 367.518 591.549, 371.206 591.741 M 417.296 591.744 C 421.583 591.932, 428.333 591.931, 432.296 591.742 C 436.258 591.552, 432.750 591.399, 424.500 591.400 C 416.250 591.401, 413.008 591.556, 417.296 591.744 M 272.673 605.750 C 304.118 605.896, 355.868 605.896, 387.673 605.750 C 419.478 605.603, 393.750 605.483, 330.500 605.483 C 267.250 605.483, 241.228 605.603, 272.673 605.750 M 536.302 605.746 C 541.693 605.926, 550.243 605.925, 555.302 605.744 C 560.361 605.563, 555.950 605.416, 545.500 605.417 C 535.050 605.418, 530.911 605.566, 536.302 605.746 M 577.434 606.311 C 577.157 607.032, 577.075 612.770, 577.252 619.061 L 577.572 630.500 577.786 618.300 L 578 606.100 583.750 605.739 L 589.500 605.378 583.719 605.189 C 579.729 605.059, 577.781 605.406, 577.434 606.311 M 201.310 636.500 C 201.315 639.800, 201.502 641.029, 201.725 639.232 C 201.947 637.435, 201.943 634.735, 201.715 633.232 C 201.486 631.729, 201.304 633.200, 201.310 636.500 M 237.250 664.749 C 251.413 664.906, 274.588 664.906, 288.750 664.749 C 302.913 664.593, 291.325 664.465, 263 664.465 C 234.675 664.465, 223.088 664.593, 237.250 664.749 M 565.287 664.740 C 568.469 664.939, 573.419 664.937, 576.287 664.736 C 579.154 664.535, 576.550 664.372, 570.500 664.374 C 564.450 664.376, 562.104 664.541, 565.287 664.740" stroke="none" fill="#201f1f" fill-rule="evenodd"/><path d="M 380.457 141.863 C 376.860 144.057, 374.592 146.739, 366.291 158.616 C 362.876 163.502, 356.105 171.449, 351.246 176.275 L 342.410 185.050 331.394 187.940 C 313.111 192.737, 302.036 198.060, 286.406 209.563 C 241.298 242.760, 214.327 289.626, 206.056 349.181 C 200.882 386.437, 201.122 448.433, 206.540 474.188 C 209.143 486.562, 215.654 497.070, 225.133 504.192 C 235.310 511.839, 244.694 515.567, 268.500 521.420 L 285.500 525.599 285.764 558.300 L 286.027 591 299.014 591 L 312 591 312 535.950 C 312 474.249, 311.921 475, 318.403 475 C 324.711 475, 324.472 472.770, 324.782 534.653 L 325.064 591 339.032 591 L 353 591 353 511.223 C 353 440.636, 353.179 431.189, 354.557 429.223 C 356.555 426.370, 361.502 426.200, 362.965 428.934 C 363.654 430.221, 364 457.655, 364 510.934 L 364 591 378 591 L 392 591 392 545.500 C 392 501.333, 392.059 499.941, 394 498 C 396.354 495.646, 398.868 495.452, 401.559 497.419 C 403.425 498.782, 403.511 500.629, 403.779 544.919 L 404.058 591 421.636 591 C 437.989 591, 439.163 590.878, 438.482 589.250 C 434.407 579.506, 431.321 565.213, 429.826 549.155 C 426.835 517.029, 435.693 481.504, 453.085 455.878 L 456.901 450.256 448.025 443.628 C 437.309 435.626, 421.385 421.320, 410.481 409.899 C 378.201 376.090, 357.001 334.085, 354.511 299 L 353.836 289.500 355.838 292.643 C 359.026 297.648, 368.974 307.280, 375.500 311.680 C 387.614 319.849, 397.607 323.873, 417.198 328.469 C 430.596 331.613, 436.728 334.314, 447.456 341.800 C 458.096 349.223, 462.964 350.728, 471.350 349.184 C 479.031 347.770, 492.946 340.987, 497.492 336.441 C 503.063 330.870, 504.981 323.125, 504.547 307.956 C 504.067 291.193, 503.120 287.996, 497.235 283.273 C 486 274.255, 472.630 260.033, 456.485 239.924 C 437.442 216.206, 431.666 210.378, 419.013 202.110 C 410.481 196.536, 394.594 189.783, 386.986 188.498 C 384.477 188.074, 383.084 187.361, 383.380 186.653 C 383.645 186.019, 385.662 180.100, 387.861 173.500 C 393.241 157.353, 395.776 147.281, 395.209 144.311 C 394.367 139.909, 385.952 138.512, 380.457 141.863 M 565.009 355.991 C 563.472 357.528, 563.338 359.583, 563.766 375.107 C 564.030 384.673, 564.696 393.063, 565.245 393.750 C 566.725 395.601, 576.495 395.363, 578.429 393.429 C 580.598 391.259, 580.761 359.423, 578.618 356.492 C 576.701 353.871, 567.469 353.531, 565.009 355.991 M 499.962 369.250 C 496.695 370.898, 495.421 372.173, 495.206 374.015 C 494.893 376.696, 506.129 404.534, 508.479 406.898 C 509.624 408.051, 510.628 408.084, 514.190 407.087 C 516.567 406.421, 519.630 405.034, 520.996 404.003 C 523.857 401.845, 524.199 403.185, 515.512 382.500 C 510.053 369.498, 508.550 367, 506.189 367 C 505.218 367, 502.416 368.012, 499.962 369.250 M 634.965 370.066 C 634.357 371.202, 630.752 378.932, 626.954 387.243 C 622.370 397.275, 620.366 402.736, 620.993 403.491 C 621.512 404.117, 624.231 405.703, 627.036 407.017 C 630.896 408.825, 632.543 409.149, 633.817 408.351 C 635.997 406.986, 650.063 377.114, 649.744 374.527 C 649.448 372.131, 642.561 368.039, 638.785 368.016 C 637.053 368.006, 635.670 368.748, 634.965 370.066 M 555.485 410.965 C 528.894 413.341, 500.245 427.223, 480.844 447.131 C 462.443 466.014, 450.562 489.257, 446.496 514.328 C 444.585 526.110, 444.583 547.345, 446.491 558.290 C 451.082 584.612, 463.775 608.870, 482.969 628 C 502.472 647.439, 525.597 659.200, 551.871 663.041 C 565.088 664.974, 589.363 663.819, 601.221 660.693 C 626.076 654.140, 644.254 643.455, 661.759 625.108 C 678.429 607.636, 689.344 586.636, 694.738 561.659 C 696.970 551.322, 697.192 522.004, 695.117 511.500 C 685.353 462.064, 643.893 421.134, 594.946 412.607 C 583.849 410.674, 566.715 409.961, 555.485 410.965 M 683.797 420.507 C 677.380 426.286, 671.848 431.903, 671.503 432.989 C 671.071 434.351, 671.886 436.219, 674.129 439.011 C 678.436 444.370, 681.065 444.957, 685.232 441.488 C 692.496 435.441, 707 420.909, 707 419.676 C 707 417.291, 699.958 410, 697.654 410 C 696.279 410, 691.119 413.913, 683.797 420.507 M 565.872 443.648 C 564.948 444.758, 564.337 449.247, 564 457.398 L 563.500 469.500 556 469.803 C 546.410 470.189, 542.767 471.180, 536.069 475.222 C 525.100 481.842, 519.324 494.944, 520.244 511.120 C 520.799 520.889, 523.516 528.102, 528.988 534.334 C 536.592 542.994, 545.120 545.168, 568.500 544.407 C 586.536 543.820, 590.927 544.432, 596.772 548.349 C 603.750 553.026, 606.500 558.602, 606.500 568.078 C 606.500 574.762, 606.146 576.225, 603.500 580.472 C 601.413 583.822, 598.826 586.233, 595 588.394 L 589.500 591.500 557.500 591.810 C 521.520 592.158, 523 591.819, 523 599.716 C 523 605.638, 524.327 606, 546.065 606 L 564 606 564 618.443 C 564 630.168, 564.128 630.976, 566.223 632.443 C 569.285 634.588, 573.607 634.393, 576 632 C 577.775 630.225, 578 628.667, 578 618.148 L 578 606.296 586.067 605.674 C 604.586 604.246, 617.190 592.801, 620.130 574.741 C 622.870 557.911, 615.713 542.142, 601.848 534.462 L 596.500 531.500 573.469 531 C 551.242 530.517, 550.265 530.411, 545.469 527.951 C 538.162 524.203, 533.992 516.952, 534.022 508.044 C 534.047 500.566, 536.195 494.956, 540.624 490.803 C 546.543 485.253, 548.296 485, 580.886 485 C 597.359 485, 611.548 484.727, 612.418 484.393 C 613.610 483.936, 614 482.350, 614 477.964 C 614 469.065, 613.859 469, 594.429 469 L 578 469 578 457.723 C 578 444.216, 577.023 442, 571.066 442 C 568.739 442, 566.708 442.644, 565.872 443.648 M 719.077 474.991 C 711.145 477.700, 704.011 480.561, 703.224 481.348 C 700.637 483.935, 705.011 495, 708.620 495 C 709.528 495, 717.382 492.739, 726.075 489.976 C 737.862 486.229, 742.030 484.480, 742.470 483.094 C 742.795 482.071, 742.259 478.820, 741.280 475.867 C 739.689 471.071, 739.181 470.477, 736.500 470.283 C 734.850 470.163, 727.010 472.282, 719.077 474.991 M 713.067 539.875 C 712.515 540.906, 711.775 543.556, 711.422 545.765 C 710.341 552.522, 712.002 553.368, 730.493 555.483 C 741.315 556.721, 746.816 556.977, 747.906 556.292 C 749.852 555.071, 751.485 548.069, 750.624 544.640 C 749.841 541.518, 749.193 541.319, 733.940 539.513 C 717.105 537.519, 714.302 537.568, 713.067 539.875 M 696.148 598.261 C 692.248 604.570, 691.898 606.569, 694.317 608.702 C 698.626 612.500, 720.896 625, 723.354 625 C 727.042 625, 732.769 616.168, 731.398 612.594 C 730.701 610.778, 702.603 595, 700.066 595 C 698.996 595, 697.281 596.428, 696.148 598.261 M 329 606.002 C 264.925 606.287, 212.403 606.629, 212.285 606.760 C 212.166 606.892, 210.478 608.398, 208.532 610.106 C 203.665 614.379, 202.294 620.139, 201.508 639.611 C 200.733 658.794, 201.608 662.479, 207.174 663.477 C 209.003 663.805, 273.745 663.945, 351.044 663.787 C 487.590 663.508, 491.671 663.445, 494.512 661.584 L 497.436 659.668 494.556 657.584 C 475.549 643.831, 460.277 628.238, 450.590 612.697 C 447.952 608.464, 445.727 605.109, 445.646 605.242 C 445.566 605.375, 393.075 605.717, 329 606.002 M 658.103 644.040 C 650.859 649.288, 650.968 649.705, 663.733 665.558 C 673.515 677.706, 674.138 678.254, 677.266 677.469 C 680.456 676.669, 687 671.265, 687 669.432 C 687 667.580, 665.004 641, 663.471 641 C 662.827 641, 660.411 642.368, 658.103 644.040 M 606.273 672.113 C 600.440 673.798, 600.379 675.435, 605.523 692.289 C 608.075 700.650, 610.660 708.090, 611.267 708.822 C 612.544 710.360, 617.799 709.672, 622.215 707.389 C 624.154 706.386, 625 705.176, 625 703.407 C 625 700.350, 617.196 674.024, 615.764 672.250 C 614.607 670.817, 610.943 670.764, 606.273 672.113 M 546.790 675.187 C 545.517 676.164, 544.541 680.281, 542.978 691.275 C 540.208 710.755, 540.363 712.107, 545.564 713.905 C 550.194 715.506, 554.504 714.808, 555.859 712.238 C 556.363 711.282, 557.072 707.800, 557.434 704.500 C 557.795 701.200, 558.757 694.276, 559.570 689.113 C 561.095 679.424, 560.886 676.554, 558.590 675.673 C 554.807 674.221, 548.392 673.957, 546.790 675.187" stroke="none" fill="#040404" fill-rule="evenodd"/></svg>