<?xml version="1.0" encoding="UTF-8"?>
<svg version="1.1" xmlns="http://www.w3.org/2000/svg" width="512" height="512">
<path d="M0 0 C11.22 0 22.44 0 34 0 C34 9.57 34 19.14 34 29 C37.0628125 29.0928125 37.0628125 29.0928125 40.1875 29.1875 C54.61258046 29.96983849 68.96516955 33.8518603 82 40 C80.65034402 48.33958657 78.67252964 56.41961883 76.4375 64.5625 C76.12103516 65.73619141 75.80457031 66.90988281 75.47851562 68.11914062 C73.14207688 76.71584624 73.14207688 76.71584624 72 79 C68.66121029 77.90806877 65.34491611 76.77103966 62.046875 75.5625 C44.54672833 69.16879984 23.4779567 63.73370961 5.5 71.75 C0.58524815 74.56585148 -2.35773034 77.83233988 -4 83.375 C-4 88.83283648 -3.09592294 92.73347868 0.6796875 96.81640625 C10.02845409 104.70112071 22.08620823 108.67549238 33.34301758 113.00561523 C55.3691097 121.48497397 75.76261005 130.7432356 86.73828125 152.875 C92.45445607 167.03270853 92.42001086 183.75709144 87.375 198.0625 C80.49303201 213.90880268 66.89834094 226.22172015 51.01196289 232.52075195 C44.3466716 235.06465447 38.12153936 236.57569213 31 238 C31 249.55 31 261.1 31 273 C19.78 273 8.56 273 -3 273 C-3 262.44 -3 251.88 -3 241 C-7.1765625 240.62875 -7.1765625 240.62875 -11.4375 240.25 C-27.83518602 238.59721287 -44.32696703 234.76155397 -59 227 C-58.41801758 221.66128122 -57.51930985 216.64498991 -56.15234375 211.4375 C-55.97619034 210.76074219 -55.80003693 210.08398438 -55.61854553 209.38671875 C-55.06293303 207.25653953 -54.50035569 205.12827543 -53.9375 203 C-53.55617539 201.54309044 -53.17531194 200.0860601 -52.79492188 198.62890625 C-51.86859937 195.08452778 -50.93602767 191.54182948 -50 188 C-45.74332299 186.67980826 -43.84454952 187.70587678 -39.8125 189.625 C-21.20228406 198.08915047 2.50193011 204.50565279 22.62890625 197.98046875 C27.50946595 195.96231309 31.57263784 193.74966974 34.9375 189.625 C37.37540303 183.60194546 37.26365451 179.04901867 35.00390625 173.0703125 C30.69458182 164.18337886 19.39157091 160.07115852 10.8125 156.5 C9.8855835 156.1076416 8.95866699 155.7152832 8.00366211 155.31103516 C3.05759493 153.23015989 -1.90850506 151.24538974 -6.9375 149.375 C-18.80805551 144.8660293 -29.22277659 139.12822901 -39 131 C-39.67804688 130.43667969 -40.35609375 129.87335938 -41.0546875 129.29296875 C-50.02485043 121.10021994 -55.79618281 109.00563917 -56.43359375 96.88671875 C-56.45694265 95.15380264 -56.45779862 93.42045453 -56.4375 91.6875 C-56.42992676 90.77250732 -56.42235352 89.85751465 -56.41455078 88.91479492 C-56.04807552 73.75957145 -49.99055502 60.48329864 -39 50 C-28.69822447 41.39345335 -13.89439474 32 0 32 C0 21.44 0 10.88 0 0 Z " fill="#000000" transform="translate(228,137)"/>
<path d="M0 0 C4.1168329 0.82336658 6.58613434 1.607403 10.22314453 3.43334961 C11.24256134 3.94155746 12.26197815 4.44976532 13.31228638 4.97337341 C14.40806 5.52743362 15.50383362 6.08149384 16.6328125 6.65234375 C17.77926239 7.22650528 18.92571228 7.80066681 20.10690308 8.39222717 C22.54137956 9.6117662 24.97384487 10.83519525 27.40478516 12.06176758 C30.46006851 13.60331965 33.51862061 15.13822935 36.57854366 16.67054749 C48.25898379 22.52073834 59.90470443 28.42662935 71.44566345 34.54792786 C79.29443767 38.7048175 87.2341066 42.67301487 95.1875 46.625 C96.6426748 47.35006642 98.09775309 48.07532657 99.55273438 48.80078125 C103.03405903 50.53606683 106.5166395 52.268805 110 54 C110 54.66 110 55.32 110 56 C109.3155632 56.34110809 108.6311264 56.68221619 107.9259491 57.03366089 C101.38213135 60.29542775 94.83935271 63.55926648 88.29764843 66.8252697 C84.9368488 68.50309263 81.57569304 70.18019267 78.21362305 71.85546875 C64.465633 78.70653121 50.74469513 85.5885975 37.17700195 92.79248047 C31.13159849 95.99915672 25.03087023 99.09524256 18.9140625 102.16308594 C17.60796466 102.81946674 16.30333501 103.47877519 15 104.140625 C13.06538914 105.12304458 11.1270113 106.09761071 9.1875 107.0703125 C8.06730469 107.63508301 6.94710937 108.19985352 5.79296875 108.78173828 C3 110 3 110 0 110 C-0.33 102.41 -0.66 94.82 -1 87 C-13.7582185 91.70039629 -26.05173577 96.51418288 -38 103 C-39.56427734 103.84498047 -39.56427734 103.84498047 -41.16015625 104.70703125 C-83.36610284 128.45135166 -117.27378105 169.37443088 -131 216 C-136.21767685 234.80315338 -139.42129633 253.22648497 -139.375 272.75 C-139.37545319 273.5013623 -139.37590637 274.25272461 -139.37637329 275.02685547 C-139.34569245 292.51078242 -137.71196848 309.86316389 -132.48168945 326.625 C-131.96936458 329.15104983 -132.16921589 330.58824874 -133 333 C-138.88398673 328.22441959 -144.72527072 323.40675115 -150.5 318.5 C-158.48623968 311.72311533 -166.4697372 305.09304486 -175 299 C-176.32 305.93 -177.64 312.86 -179 320 C-179.66 319.67 -180.32 319.34 -181 319 C-181.48657227 317.1809082 -181.48657227 317.1809082 -181.81640625 314.80078125 C-181.94039795 313.92832764 -182.06438965 313.05587402 -182.19213867 312.15698242 C-182.31435791 311.21830322 -182.43657715 310.27962402 -182.5625 309.3125 C-182.69180908 308.35512939 -182.82111816 307.39775879 -182.9543457 306.41137695 C-187.40356092 272.55691981 -184.89177576 237.72962998 -175 205 C-174.69521729 203.98123779 -174.69521729 203.98123779 -174.38427734 202.94189453 C-163.07518412 165.63624496 -142.10453027 132.78803581 -115 105 C-114.46987305 104.44940918 -113.93974609 103.89881836 -113.39355469 103.33154297 C-106.6722832 96.3553267 -99.71040623 89.8882953 -92 84 C-91.06124023 83.27925293 -91.06124023 83.27925293 -90.10351562 82.54394531 C-67.67995284 65.45476285 -29.57396727 39 0 39 C0 26.13 0 13.26 0 0 Z " fill="#000000" transform="translate(190,0)"/>
<path d="M0 0 C6.03636251 1.90859483 11.85058826 4.09405521 17.625 6.6875 C18.3991626 7.03417725 19.1733252 7.38085449 19.97094727 7.73803711 C42.07576305 17.77086688 61.74379526 31.08749722 80 47 C80.72703125 47.61488281 81.4540625 48.22976562 82.203125 48.86328125 C100.5171657 64.45999478 115.64844518 83.5043668 127.89306641 104.14160156 C128.92474448 105.87365571 129.98286971 107.58988102 131.04296875 109.3046875 C161.75278966 160.42642531 168.96511585 225.07972292 155.6015625 282.59375 C155.06784626 284.72861494 154.47758319 286.8306742 153.84375 288.9375 C152.82292417 292.11328549 152.82292417 292.11328549 153 296 C154.89167938 297.67229622 154.89167938 297.67229622 157.4609375 299.0234375 C158.40839844 299.57 159.35585938 300.1165625 160.33203125 300.6796875 C161.83830078 301.51886719 161.83830078 301.51886719 163.375 302.375 C165.32047278 303.48669873 167.26578615 304.59867646 169.2109375 305.7109375 C170.16838867 306.25459961 171.12583984 306.79826172 172.11230469 307.35839844 C173.06524414 307.90012695 174.01818359 308.44185547 175 309 C175.97614258 309.55461914 176.95228516 310.10923828 177.95800781 310.68066406 C178.87163086 311.21143555 179.78525391 311.74220703 180.7265625 312.2890625 C181.54979004 312.7629541 182.37301758 313.2368457 183.22119141 313.72509766 C184.10170166 314.35617432 184.10170166 314.35617432 185 315 C185 315.66 185 316.32 185 317 C183.36132812 318.25830078 183.36132812 318.25830078 181.03125 319.6953125 C180.16346924 320.23728271 179.29568848 320.77925293 178.40161133 321.33764648 C177.44407959 321.92747314 176.48654785 322.5172998 175.5 323.125 C167.52500936 328.11702316 159.62380219 333.19294163 151.8125 338.4375 C137.96845204 347.71504734 124.04080063 356.86367797 110.10015869 365.995224 C105.85194932 368.77962618 101.61515319 371.58019187 97.38671875 374.39453125 C96.44602539 375.01690674 95.50533203 375.63928223 94.53613281 376.28051758 C92.85552264 377.39255605 91.1787988 378.51050014 89.50683594 379.63549805 C87.71028327 380.81855915 85.86067491 381.92059093 84 383 C83.34 382.67 82.68 382.34 82 382 C82.89080182 366.81390365 83.78594112 351.62806729 84.68624783 336.44253159 C85.1041723 329.39165778 85.52067581 322.34070539 85.93383789 315.28955078 C86.33239242 308.48776147 86.7349018 301.68621547 87.13984871 294.88480377 C87.29387108 292.28689596 87.44655684 289.68890856 87.59789848 287.0908432 C87.80971778 283.45845579 88.02624148 279.82637767 88.24389648 276.19433594 C88.30575638 275.11468063 88.36761627 274.03502533 88.43135071 272.9226532 C88.49162445 271.93269852 88.55189819 270.94274384 88.61399841 269.92279053 C88.66469703 269.06367947 88.71539564 268.20456841 88.76763058 267.31942368 C88.98757788 265.12399293 89.40360255 263.12093275 90 261 C95.00113594 262.48008696 99.32915597 264.6318336 103.875 267.125 C104.56335938 267.49753906 105.25171875 267.87007813 105.9609375 268.25390625 C107.64294798 269.16499526 109.32180436 270.08190315 111 271 C111.65111597 267.52180095 112.29490749 264.04228298 112.9375 260.5625 C113.11990234 259.58861328 113.30230469 258.61472656 113.49023438 257.61132812 C122.22425487 210.1300167 111.29255711 159.46467057 84.38134766 119.375 C82.64112163 116.87544359 80.83347219 114.43172607 79 112 C78.44183594 111.24332031 77.88367188 110.48664063 77.30859375 109.70703125 C70.32742985 100.4717084 62.87479197 90.90976355 53.890625 83.55078125 C51.86123793 81.8861807 49.97762528 80.10701624 48.0625 78.3125 C36.63139598 68.17770675 23.54142349 59.99123365 10 53 C9.39510742 52.68724121 8.79021484 52.37448242 8.16699219 52.05224609 C-5.57096433 45.0640018 -20.2429814 40.33054611 -35 36 C-32.22702083 33.77586337 -29.60891459 32.26024251 -26.32324219 30.9152832 C-25.40258972 30.53511551 -24.48193726 30.15494781 -23.53338623 29.76325989 C-22.54783752 29.36314194 -21.56228882 28.96302399 -20.546875 28.55078125 C-19.53151672 28.13330124 -18.51615845 27.71582123 -17.47003174 27.28569031 C-14.2322163 25.95586547 -10.9911827 24.63409369 -7.75 23.3125 C-5.55186634 22.4113364 -3.353947 21.50964984 -1.15625 20.60742188 C4.22669611 18.39887755 9.61230529 16.19693288 15 14 C11.70513199 10.66340734 8.39273866 7.62636305 4.6875 4.75 C3.10715571 3.52263772 1.53890574 2.27893525 0 1 C0 0.67 0 0.34 0 0 Z " fill="#000000" transform="translate(322,47)"/>
<path d="M0 0 C7.87254333 4.1124639 15.29906613 8.70788186 22.64880371 13.68441772 C25.92035353 15.89894306 29.20326116 18.09655661 32.484375 20.296875 C33.17347961 20.75958298 33.86258423 21.22229095 34.5725708 21.69902039 C41.85931839 26.58736851 49.18790461 31.41142974 56.52352905 36.22601318 C58.74011135 37.68100895 60.95569604 39.13751388 63.17114258 40.59423828 C70.09565376 45.14440673 77.03215671 49.67444612 83.99609375 54.1640625 C85.81853483 55.34240914 87.64068907 56.52119808 89.46276855 57.70010376 C91.15051094 58.78864325 92.84327214 59.86938868 94.53613281 60.94995117 C95.52838867 61.5916626 96.52064453 62.23337402 97.54296875 62.89453125 C98.40946045 63.44987549 99.27595215 64.00521973 100.16870117 64.57739258 C100.77302979 65.04685303 101.3773584 65.51631348 102 66 C102 66.66 102 67.32 102 68 C92.595 72.95 92.595 72.95 83 78 C94.22099748 100.44199496 133.14860927 115.1516866 155.75 122.75 C159.1582872 123.86123389 162.57502367 124.94141105 166 126 C167.06605469 126.33 168.13210937 126.66 169.23046875 127 C215.54374908 139.83138503 268.04516373 130.9565568 309.6875 108 C327.70167426 97.70532526 342.9349642 84.12809413 358 70 C358.66 70.33 359.32 70.66 360 71 C359.92483154 71.54821915 359.84966309 72.09643829 359.7722168 72.66127014 C358.98803836 78.38727678 358.21041421 84.11414681 357.43652344 89.84155273 C357.14717558 91.97654505 356.85617911 94.11131463 356.56347656 96.24584961 C356.14210278 99.32087496 355.72674019 102.39666281 355.3125 105.47265625 C355.18125732 106.42084732 355.05001465 107.36903839 354.91479492 108.34596252 C354.25624714 113.28217234 353.85626534 118.02019283 354 123 C354.81984375 122.69964844 355.6396875 122.39929688 356.484375 122.08984375 C357.56203125 121.70957031 358.6396875 121.32929688 359.75 120.9375 C360.81734375 120.55464844 361.8846875 120.17179687 362.984375 119.77734375 C365.92280042 119.01989989 367.22348948 118.92848259 370 120 C335.08113685 148.75671083 295.66952197 167.56502138 251 175 C250.02901367 175.17732666 249.05802734 175.35465332 248.05761719 175.53735352 C237.2182113 177.33937668 226.46279103 177.35569652 215.5 177.3125 C214.52034271 177.31034485 213.54068542 177.3081897 212.53134155 177.30596924 C198.48866554 177.25630638 184.77682261 176.96406423 171 174 C170.01660645 173.79600586 169.03321289 173.59201172 168.02001953 173.38183594 C121.13922291 163.46738087 76.59997786 141.27377648 44.0078125 105.5546875 C42.17907115 103.76075494 42.17907115 103.76075494 40.18652344 104.2277832 C37.57834122 105.14891768 35.38499237 106.3843764 33.0078125 107.80078125 C32.05519531 108.36603516 31.10257813 108.93128906 30.12109375 109.51367188 C29.13238281 110.10728516 28.14367187 110.70089844 27.125 111.3125 C26.14402344 111.89451172 25.16304687 112.47652344 24.15234375 113.07617188 C18.23040691 116.6039004 18.23040691 116.6039004 12.4921875 120.41796875 C10 122 10 122 7 122 C5.11166887 96.44226478 3.46571713 70.87170071 1.94868469 45.28956604 C1.81296912 43.00788694 1.67599887 40.72628626 1.53869629 38.44470215 C1.31941649 34.79675524 1.10369899 31.14861372 0.89065361 27.50029755 C0.77350326 25.50514616 0.65341237 23.5101681 0.53321838 21.51519775 C0.11927291 14.33328377 -0.10250231 7.19377766 0 0 Z " fill="#000000" transform="translate(30,335)"/>
</svg>
